<?xml version="1.0" encoding="UTF-8" standalone="no"?>
<!-- Created with Inkscape (http://www.inkscape.org/) -->
<svg
   xmlns:svg="http://www.w3.org/2000/svg"
   xmlns="http://www.w3.org/2000/svg"
   version="1.0"
   width="3146"
   height="1214"
   id="svg2">
  <defs
     id="defs5" />
  <path
     d="M 1468.3026,334.2768 C 1468.5725,325.97174 1467.9713,260.33809 1468.3026,250.92613 C 1468.6335,241.52632 1474.0106,233.8113 1485.1789,233.45744 C 1496.3472,233.10357 1564.6267,233.25614 1573.7791,233.45744 C 1582.9316,233.65873 1590.918,238.53274 1591.1516,250.92613 C 1591.3854,263.56908 1590.8072,321.93876 1591.1516,334.2768 C 1591.5033,346.86883 1581.7726,351.81828 1573.7791,351.99505 C 1566.0337,352.17183 1494.9126,352.47785 1485.1789,351.99505 C 1475.4451,351.51225 1468.0327,342.58186 1468.3026,334.2768 z "
     style="fill:none;fill-rule:evenodd;stroke:#ff0000;stroke-width:4;stroke-linecap:butt;stroke-linejoin:miter;stroke-miterlimit:4;stroke-dasharray:none;stroke-opacity:1"
     id="path4191" />
  <path
     d="M 1264.8935,334.2768 C 1265.1634,325.97174 1264.5622,260.33809 1264.8935,250.92613 C 1265.2244,241.52632 1270.6015,233.8113 1281.7698,233.45744 C 1292.9381,233.10357 1361.2176,233.25614 1370.37,233.45744 C 1379.5225,233.65873 1387.5089,238.53274 1387.7425,250.92613 C 1387.9763,263.56908 1387.3981,321.93876 1387.7425,334.2768 C 1388.0942,346.86883 1378.3635,351.81828 1370.37,351.99505 C 1362.6246,352.17183 1291.5035,352.47785 1281.7698,351.99505 C 1272.036,351.51225 1264.6236,342.58186 1264.8935,334.2768 z "
     style="fill:none;fill-rule:evenodd;stroke:#ff0000;stroke-width:4;stroke-linecap:butt;stroke-linejoin:miter;stroke-miterlimit:4;stroke-dasharray:none;stroke-opacity:1"
     id="path4193" />
  <path
     d="M 1671.7117,334.2768 C 1671.9816,325.97174 1671.3804,260.33809 1671.7117,250.92613 C 1672.0426,241.52632 1677.4197,233.8113 1688.588,233.45744 C 1699.7563,233.10357 1768.0358,233.25614 1777.1882,233.45744 C 1786.3407,233.65873 1794.3271,238.53274 1794.5607,250.92613 C 1794.7945,263.56908 1794.2163,321.93876 1794.5607,334.2768 C 1794.9124,346.86883 1785.1817,351.81828 1777.1882,351.99505 C 1769.4428,352.17183 1698.3217,352.47785 1688.588,351.99505 C 1678.8542,351.51225 1671.4418,342.58186 1671.7117,334.2768 z "
     style="fill:none;fill-rule:evenodd;stroke:#ff0000;stroke-width:4;stroke-linecap:butt;stroke-linejoin:miter;stroke-miterlimit:4;stroke-dasharray:none;stroke-opacity:1"
     id="path4195" />
  <path
     d="M 1875.1208,334.2768 C 1875.3907,325.97174 1874.7895,260.33809 1875.1208,250.92613 C 1875.4517,241.52632 1880.8288,233.8113 1891.9971,233.45744 C 1903.1654,233.10357 1971.4449,233.25614 1980.5973,233.45744 C 1989.7498,233.65873 1997.7362,238.53274 1997.9698,250.92613 C 1998.2036,263.56908 1997.6254,321.93876 1997.9698,334.2768 C 1998.3215,346.86883 1988.5908,351.81828 1980.5973,351.99505 C 1972.8519,352.17183 1901.7308,352.47785 1891.9971,351.99505 C 1882.2633,351.51225 1874.8509,342.58186 1875.1208,334.2768 z "
     style="fill:none;fill-rule:evenodd;stroke:#ff0000;stroke-width:4;stroke-linecap:butt;stroke-linejoin:miter;stroke-miterlimit:4;stroke-dasharray:none;stroke-opacity:1"
     id="path4197" />
  <path
     d="M 2076.5299,334.2768 C 2076.7998,325.97174 2076.1986,260.33809 2076.5299,250.92613 C 2076.8608,241.52632 2082.2379,233.8113 2093.4062,233.45744 C 2104.5745,233.10357 2172.854,233.25614 2182.0064,233.45744 C 2191.1589,233.65873 2199.1453,238.53274 2199.3789,250.92613 C 2199.6127,263.56908 2199.0345,321.93876 2199.3789,334.2768 C 2199.7306,346.86883 2189.9999,351.81828 2182.0064,351.99505 C 2174.261,352.17183 2103.1399,352.47785 2093.4062,351.99505 C 2083.6724,351.51225 2076.26,342.58186 2076.5299,334.2768 z "
     style="fill:none;fill-rule:evenodd;stroke:#ff0000;stroke-width:4;stroke-linecap:butt;stroke-linejoin:miter;stroke-miterlimit:4;stroke-dasharray:none;stroke-opacity:1"
     id="path4199" />
  <path
     d="M 2281.939,334.2768 C 2282.2089,325.97174 2281.6077,260.33809 2281.939,250.92613 C 2282.2699,241.52632 2287.647,233.8113 2298.8153,233.45744 C 2309.9836,233.10357 2378.2631,233.25614 2387.4155,233.45744 C 2396.568,233.65873 2404.5544,238.53274 2404.788,250.92613 C 2405.0218,263.56908 2404.4436,321.93876 2404.788,334.2768 C 2405.1397,346.86883 2395.409,351.81828 2387.4155,351.99505 C 2379.6701,352.17183 2308.549,352.47785 2298.8153,351.99505 C 2289.0815,351.51225 2281.6691,342.58186 2281.939,334.2768 z "
     style="fill:none;fill-rule:evenodd;stroke:#ff0000;stroke-width:4;stroke-linecap:butt;stroke-linejoin:miter;stroke-miterlimit:4;stroke-dasharray:none;stroke-opacity:1"
     id="path4201" />
  <path
     d="M 2485.3481,334.2768 C 2485.618,325.97174 2485.0168,260.33809 2485.3481,250.92613 C 2485.679,241.52632 2491.0561,233.8113 2502.2244,233.45744 C 2513.3927,233.10357 2647.6722,233.25614 2656.8246,233.45744 C 2665.9771,233.65873 2673.9635,238.53274 2674.1971,250.92613 C 2674.4309,263.56908 2673.8527,321.93876 2674.1971,334.2768 C 2674.5488,346.86883 2664.8181,351.81828 2656.8246,351.99505 C 2649.0792,352.17183 2511.9581,352.47785 2502.2244,351.99505 C 2492.4906,351.51225 2485.0782,342.58186 2485.3481,334.2768 z "
     style="fill:none;fill-rule:evenodd;stroke:#ff0000;stroke-width:4;stroke-linecap:butt;stroke-linejoin:miter;stroke-miterlimit:4;stroke-dasharray:none;stroke-opacity:1"
     id="path4203" />
  <path
     d="M 1061.4844,334.2768 C 1061.7543,325.97174 1061.1531,260.33809 1061.4844,250.92613 C 1061.8153,241.52632 1067.1924,233.8113 1078.3607,233.45744 C 1089.529,233.10357 1157.8085,233.25614 1166.9609,233.45744 C 1176.1134,233.65873 1184.0998,238.53274 1184.3334,250.92613 C 1184.5672,263.56908 1183.989,321.93876 1184.3334,334.2768 C 1184.6851,346.86883 1174.9544,351.81828 1166.9609,351.99505 C 1159.2155,352.17183 1088.0944,352.47785 1078.3607,351.99505 C 1068.6269,351.51225 1061.2145,342.58186 1061.4844,334.2768 z "
     style="fill:none;fill-rule:evenodd;stroke:#ff0000;stroke-width:4;stroke-linecap:butt;stroke-linejoin:miter;stroke-miterlimit:4;stroke-dasharray:none;stroke-opacity:1"
     id="path4205" />
  <path
     d="M 858.0753,334.2768 C 858.3452,325.97174 857.744,260.33809 858.0753,250.92613 C 858.4062,241.52632 863.7833,233.8113 874.9516,233.45744 C 886.1199,233.10357 954.3994,233.25614 963.5518,233.45744 C 972.7043,233.65873 980.6907,238.53274 980.9243,250.92613 C 981.1581,263.56908 980.5799,321.93876 980.9243,334.2768 C 981.276,346.86883 971.5453,351.81828 963.5518,351.99505 C 955.8064,352.17183 884.6853,352.47785 874.9516,351.99505 C 865.2178,351.51225 857.8054,342.58186 858.0753,334.2768 z "
     style="fill:none;fill-rule:evenodd;stroke:#ff0000;stroke-width:4;stroke-linecap:butt;stroke-linejoin:miter;stroke-miterlimit:4;stroke-dasharray:none;stroke-opacity:1"
     id="path4207" />
  <path
     d="M 654.6662,334.2768 C 654.9361,325.97174 654.3349,260.33809 654.6662,250.92613 C 654.9971,241.52632 660.3742,233.8113 671.5425,233.45744 C 682.7108,233.10357 750.9903,233.25614 760.1427,233.45744 C 769.2952,233.65873 777.2816,238.53274 777.5152,250.92613 C 777.749,263.56908 777.1708,321.93876 777.5152,334.2768 C 777.8669,346.86883 768.1362,351.81828 760.1427,351.99505 C 752.3973,352.17183 681.2762,352.47785 671.5425,351.99505 C 661.8087,351.51225 654.3963,342.58186 654.6662,334.2768 z "
     style="fill:none;fill-rule:evenodd;stroke:#ff0000;stroke-width:4;stroke-linecap:butt;stroke-linejoin:miter;stroke-miterlimit:4;stroke-dasharray:none;stroke-opacity:1"
     id="path4209" />
  <path
     d="M 451.2571,334.2768 C 451.527,325.97174 450.9258,260.33809 451.2571,250.92613 C 451.588,241.52632 456.9651,233.8113 468.1334,233.45744 C 479.3017,233.10357 547.5812,233.25614 556.7336,233.45744 C 565.8861,233.65873 573.8725,238.53274 574.1061,250.92613 C 574.3399,263.56908 573.7617,321.93876 574.1061,334.2768 C 574.4578,346.86883 564.7271,351.81828 556.7336,351.99505 C 548.9882,352.17183 477.8671,352.47785 468.1334,351.99505 C 458.3996,351.51225 450.9872,342.58186 451.2571,334.2768 z "
     style="fill:none;fill-rule:evenodd;stroke:#ff0000;stroke-width:4;stroke-linecap:butt;stroke-linejoin:miter;stroke-miterlimit:4;stroke-dasharray:none;stroke-opacity:1"
     id="path4211" />
  <path
     d="M 247.84804,334.2768 C 248.11794,325.97174 247.51674,260.33809 247.84804,250.92613 C 248.17894,241.52632 253.55604,233.8113 264.72434,233.45744 C 275.8926,233.10357 344.1721,233.25614 353.3245,233.45744 C 362.477,233.65873 370.4634,238.53274 370.697,250.92613 C 370.9308,263.56908 370.3526,321.93876 370.697,334.2768 C 371.0487,346.86883 361.318,351.81828 353.3245,351.99505 C 345.5791,352.17183 274.458,352.47785 264.72434,351.99505 C 254.99054,351.51225 247.57814,342.58186 247.84804,334.2768 z "
     style="fill:none;fill-rule:evenodd;stroke:#ff0000;stroke-width:4;stroke-linecap:butt;stroke-linejoin:miter;stroke-miterlimit:4;stroke-dasharray:none;stroke-opacity:1"
     id="path4213" />
  <path
     d="M 78.09808,334.2768 C 78.36798,325.97174 77.76678,260.33809 78.09808,250.92613 C 78.42898,241.52632 83.80608,233.8113 94.97438,233.45744 C 106.14264,233.10357 142.42214,233.25614 151.57454,233.45744 C 160.72704,233.65873 168.71344,238.53274 168.94704,250.92613 C 169.18084,263.56908 168.60264,321.93876 168.94704,334.2768 C 169.29874,346.86883 159.56804,351.81828 151.57454,351.99505 C 143.82914,352.17183 104.70804,352.47785 94.97438,351.99505 C 85.24058,351.51225 77.82818,342.58186 78.09808,334.2768 z "
     style="fill:none;fill-rule:evenodd;stroke:#ff0000;stroke-width:4;stroke-linecap:butt;stroke-linejoin:miter;stroke-miterlimit:4;stroke-dasharray:none;stroke-opacity:1"
     id="path4217" />
  <path
     d="M 2756.5981,334.2768 C 2756.868,325.97174 2756.2668,260.33809 2756.5981,250.92613 C 2756.929,241.52632 2762.3061,233.8113 2773.4744,233.45744 C 2784.6426,233.10357 3038.9221,233.25614 3048.0745,233.45744 C 3057.227,233.65873 3065.2134,238.53274 3065.447,250.92613 C 3065.6808,263.56908 3065.1026,321.93876 3065.447,334.2768 C 3065.7987,346.86883 3056.068,351.81828 3048.0745,351.99505 C 3040.3291,352.17183 2783.208,352.47785 2773.4744,351.99505 C 2763.7406,351.51225 2756.3282,342.58186 2756.5981,334.2768 z "
     style="fill:none;fill-rule:evenodd;stroke:#ff0000;stroke-width:4;stroke-linecap:butt;stroke-linejoin:miter;stroke-miterlimit:4;stroke-dasharray:none;stroke-opacity:1"
     id="path4219" />
  <path
     d="M 2758.0981,727.27667 C 2758.368,718.97161 2757.7668,457.33796 2758.0981,447.926 C 2758.429,438.52619 2763.8061,430.81117 2774.9744,430.45731 C 2786.1426,430.10344 3040.4221,430.25601 3049.5745,430.45731 C 3058.727,430.6586 3066.7134,435.53261 3066.947,447.926 C 3067.1808,460.56895 3066.6026,714.93863 3066.947,727.27667 C 3067.2987,739.8687 3057.568,744.81815 3049.5745,744.99492 C 3041.8291,745.1717 2784.708,745.47772 2774.9744,744.99492 C 2765.2406,744.51212 2757.8282,735.58173 2758.0981,727.27667 z "
     style="fill:none;fill-rule:evenodd;stroke:#ff0000;stroke-width:4;stroke-linecap:butt;stroke-linejoin:miter;stroke-miterlimit:4;stroke-dasharray:none;stroke-opacity:1"
     id="path4221" />
  <path
     d="M 1506.3026,531.7768 C 1506.5725,523.4717 1505.9713,457.8381 1506.3026,448.4261 C 1506.6335,439.0263 1512.0106,431.3113 1523.1789,430.9574 C 1534.3472,430.6036 1602.6267,430.7561 1611.7791,430.9574 C 1620.9316,431.1587 1628.918,436.0327 1629.1516,448.4261 C 1629.3854,461.0691 1628.8072,519.4388 1629.1516,531.7768 C 1629.5033,544.3688 1619.7726,549.3183 1611.7791,549.4951 C 1604.0337,549.6718 1532.9126,549.9779 1523.1789,549.4951 C 1513.4451,549.0123 1506.0327,540.0819 1506.3026,531.7768 z "
     style="fill:none;fill-rule:evenodd;stroke:#ff0000;stroke-width:4;stroke-linecap:butt;stroke-linejoin:miter;stroke-miterlimit:4;stroke-dasharray:none;stroke-opacity:1"
     id="path4167" />
  <path
     d="M 1302.8935,531.7768 C 1303.1634,523.4717 1302.5622,457.8381 1302.8935,448.4261 C 1303.2244,439.0263 1308.6015,431.3113 1319.7698,430.9574 C 1330.9381,430.6036 1399.2176,430.7561 1408.37,430.9574 C 1417.5225,431.1587 1425.5089,436.0327 1425.7425,448.4261 C 1425.9763,461.0691 1425.3981,519.4388 1425.7425,531.7768 C 1426.0942,544.3688 1416.3635,549.3183 1408.37,549.4951 C 1400.6246,549.6718 1329.5035,549.9779 1319.7698,549.4951 C 1310.036,549.0123 1302.6236,540.0819 1302.8935,531.7768 z "
     style="fill:none;fill-rule:evenodd;stroke:#ff0000;stroke-width:4;stroke-linecap:butt;stroke-linejoin:miter;stroke-miterlimit:4;stroke-dasharray:none;stroke-opacity:1"
     id="path4169" />
  <path
     d="M 1709.7117,531.7768 C 1709.9816,523.4717 1709.3804,457.8381 1709.7117,448.4261 C 1710.0426,439.0263 1715.4197,431.3113 1726.588,430.9574 C 1737.7563,430.6036 1806.0358,430.7561 1815.1882,430.9574 C 1824.3407,431.1587 1832.3271,436.0327 1832.5607,448.4261 C 1832.7945,461.0691 1832.2163,519.4388 1832.5607,531.7768 C 1832.9124,544.3688 1823.1817,549.3183 1815.1882,549.4951 C 1807.4428,549.6718 1736.3217,549.9779 1726.588,549.4951 C 1716.8542,549.0123 1709.4418,540.0819 1709.7117,531.7768 z "
     style="fill:none;fill-rule:evenodd;stroke:#ff0000;stroke-width:4;stroke-linecap:butt;stroke-linejoin:miter;stroke-miterlimit:4;stroke-dasharray:none;stroke-opacity:1"
     id="path4171" />
  <path
     d="M 1913.1208,531.7768 C 1913.3907,523.4717 1912.7895,457.8381 1913.1208,448.4261 C 1913.4517,439.0263 1918.8288,431.3113 1929.9971,430.9574 C 1941.1654,430.6036 2009.4449,430.7561 2018.5973,430.9574 C 2027.7498,431.1587 2035.7362,436.0327 2035.9698,448.4261 C 2036.2036,461.0691 2035.6254,519.4388 2035.9698,531.7768 C 2036.3215,544.3688 2026.5908,549.3183 2018.5973,549.4951 C 2010.8519,549.6718 1939.7308,549.9779 1929.9971,549.4951 C 1920.2633,549.0123 1912.8509,540.0819 1913.1208,531.7768 z "
     style="fill:none;fill-rule:evenodd;stroke:#ff0000;stroke-width:4;stroke-linecap:butt;stroke-linejoin:miter;stroke-miterlimit:4;stroke-dasharray:none;stroke-opacity:1"
     id="path4173" />
  <path
     d="M 2116.5299,531.7768 C 2116.7998,523.4717 2116.1986,457.8381 2116.5299,448.4261 C 2116.8608,439.0263 2122.2379,431.3113 2133.4062,430.9574 C 2144.5745,430.6036 2212.854,430.7561 2222.0064,430.9574 C 2231.1589,431.1587 2239.1453,436.0327 2239.3789,448.4261 C 2239.6127,461.0691 2239.0345,519.4388 2239.3789,531.7768 C 2239.7306,544.3688 2229.9999,549.3183 2222.0064,549.4951 C 2214.261,549.6718 2143.1399,549.9779 2133.4062,549.4951 C 2123.6724,549.0123 2116.26,540.0819 2116.5299,531.7768 z "
     style="fill:none;fill-rule:evenodd;stroke:#ff0000;stroke-width:4;stroke-linecap:butt;stroke-linejoin:miter;stroke-miterlimit:4;stroke-dasharray:none;stroke-opacity:1"
     id="path4175" />
  <path
     d="M 2319.939,531.7768 C 2320.2089,523.4717 2319.6077,457.8381 2319.939,448.4261 C 2320.2699,439.0263 2325.647,431.3113 2336.8153,430.9574 C 2347.9836,430.6036 2416.2631,430.7561 2425.4155,430.9574 C 2434.568,431.1587 2442.5544,436.0327 2442.788,448.4261 C 2443.0218,461.0691 2442.4436,519.4388 2442.788,531.7768 C 2443.1397,544.3688 2433.409,549.3183 2425.4155,549.4951 C 2417.6701,549.6718 2346.549,549.9779 2336.8153,549.4951 C 2327.0815,549.0123 2319.6691,540.0819 2319.939,531.7768 z "
     style="fill:none;fill-rule:evenodd;stroke:#ff0000;stroke-width:4;stroke-linecap:butt;stroke-linejoin:miter;stroke-miterlimit:4;stroke-dasharray:none;stroke-opacity:1"
     id="path4177" />
  <path
     d="M 2523.3481,531.7768 C 2523.618,523.4717 2523.0168,457.8381 2523.3481,448.4261 C 2523.679,439.0263 2529.0561,431.3113 2540.2244,430.9574 C 2551.3927,430.6036 2649.6722,430.7561 2658.8246,430.9574 C 2667.9771,431.1587 2675.9635,436.0327 2676.1971,448.4261 C 2676.4309,461.0691 2675.8527,519.4388 2676.1971,531.7768 C 2676.5488,544.3688 2666.8181,549.3183 2658.8246,549.4951 C 2651.0792,549.6718 2549.9581,549.9779 2540.2244,549.4951 C 2530.4906,549.0123 2523.0782,540.0819 2523.3481,531.7768 z "
     style="fill:none;fill-rule:evenodd;stroke:#ff0000;stroke-width:4;stroke-linecap:butt;stroke-linejoin:miter;stroke-miterlimit:4;stroke-dasharray:none;stroke-opacity:1"
     id="path4179" />
  <path
     d="M 1099.4844,531.7768 C 1099.7543,523.4717 1099.1531,457.8381 1099.4844,448.4261 C 1099.8153,439.0263 1105.1924,431.3113 1116.3607,430.9574 C 1127.529,430.6036 1195.8085,430.7561 1204.9609,430.9574 C 1214.1134,431.1587 1222.0998,436.0327 1222.3334,448.4261 C 1222.5672,461.0691 1221.989,519.4388 1222.3334,531.7768 C 1222.6851,544.3688 1212.9544,549.3183 1204.9609,549.4951 C 1197.2155,549.6718 1126.0944,549.9779 1116.3607,549.4951 C 1106.6269,549.0123 1099.2145,540.0819 1099.4844,531.7768 z "
     style="fill:none;fill-rule:evenodd;stroke:#ff0000;stroke-width:4;stroke-linecap:butt;stroke-linejoin:miter;stroke-miterlimit:4;stroke-dasharray:none;stroke-opacity:1"
     id="path4181" />
  <path
     d="M 896.07528,531.7768 C 896.34518,523.4717 895.74398,457.8381 896.07528,448.4261 C 896.40618,439.0263 901.78328,431.3113 912.95158,430.9574 C 924.11988,430.6036 992.39938,430.7561 1001.5518,430.9574 C 1010.7043,431.1587 1018.6907,436.0327 1018.9243,448.4261 C 1019.1581,461.0691 1018.5799,519.4388 1018.9243,531.7768 C 1019.276,544.3688 1009.5453,549.3183 1001.5518,549.4951 C 993.80638,549.6718 922.68528,549.9779 912.95158,549.4951 C 903.21778,549.0123 895.80538,540.0819 896.07528,531.7768 z "
     style="fill:none;fill-rule:evenodd;stroke:#ff0000;stroke-width:4;stroke-linecap:butt;stroke-linejoin:miter;stroke-miterlimit:4;stroke-dasharray:none;stroke-opacity:1"
     id="path4183" />
  <path
     d="M 692.66623,531.7768 C 692.93613,523.4717 692.33493,457.8381 692.66623,448.4261 C 692.99713,439.0263 698.37423,431.3113 709.54253,430.9574 C 720.71083,430.6036 788.99033,430.7561 798.14273,430.9574 C 807.29523,431.1587 815.28163,436.0327 815.51523,448.4261 C 815.74903,461.0691 815.17083,519.4388 815.51523,531.7768 C 815.86693,544.3688 806.13623,549.3183 798.14273,549.4951 C 790.39733,549.6718 719.27623,549.9779 709.54253,549.4951 C 699.80873,549.0123 692.39633,540.0819 692.66623,531.7768 z "
     style="fill:none;fill-rule:evenodd;stroke:#ff0000;stroke-width:4;stroke-linecap:butt;stroke-linejoin:miter;stroke-miterlimit:4;stroke-dasharray:none;stroke-opacity:1"
     id="path4185" />
  <path
     d="M 489.25713,531.7768 C 489.52703,523.4717 488.92583,457.8381 489.25713,448.4261 C 489.58803,439.0263 494.96513,431.3113 506.13343,430.9574 C 517.30173,430.6036 585.58123,430.7561 594.73363,430.9574 C 603.88613,431.1587 611.87253,436.0327 612.10613,448.4261 C 612.33993,461.0691 611.76173,519.4388 612.10613,531.7768 C 612.45783,544.3688 602.72713,549.3183 594.73363,549.4951 C 586.98823,549.6718 515.86713,549.9779 506.13343,549.4951 C 496.39963,549.0123 488.98723,540.0819 489.25713,531.7768 z "
     style="fill:none;fill-rule:evenodd;stroke:#ff0000;stroke-width:4;stroke-linecap:butt;stroke-linejoin:miter;stroke-miterlimit:4;stroke-dasharray:none;stroke-opacity:1"
     id="path4187" />
  <path
     d="M 285.84804,531.7768 C 286.11794,523.4717 285.51674,457.8381 285.84804,448.4261 C 286.17894,439.0263 291.55604,431.3113 302.72434,430.9574 C 313.89264,430.6036 382.17214,430.7561 391.32454,430.9574 C 400.47704,431.1587 408.46344,436.0327 408.69704,448.4261 C 408.93084,461.0691 408.35264,519.4388 408.69704,531.7768 C 409.04874,544.3688 399.31804,549.3183 391.32454,549.4951 C 383.57914,549.6718 312.45804,549.9779 302.72434,549.4951 C 292.99054,549.0123 285.57814,540.0819 285.84804,531.7768 z "
     style="fill:none;fill-rule:evenodd;stroke:#ff0000;stroke-width:4;stroke-linecap:butt;stroke-linejoin:miter;stroke-miterlimit:4;stroke-dasharray:none;stroke-opacity:1"
     id="path4189" />
  <path
     d="M 80.09808,531.7768 C 80.36798,523.4717 79.76678,457.8381 80.09808,448.4261 C 80.42898,439.0263 85.80608,431.3113 96.97438,430.9574 C 108.14268,430.6036 176.42218,430.7561 185.57458,430.9574 C 194.72708,431.1587 202.71348,436.0327 202.94708,448.4261 C 203.18088,461.0691 202.60268,519.4388 202.94708,531.7768 C 203.29878,544.3688 193.56808,549.3183 185.57458,549.4951 C 177.82918,549.6718 106.70808,549.9779 96.97438,549.4951 C 87.24058,549.0123 79.82818,540.0819 80.09808,531.7768 z "
     style="fill:none;fill-rule:evenodd;stroke:#ff0000;stroke-width:4;stroke-linecap:butt;stroke-linejoin:miter;stroke-miterlimit:4;stroke-dasharray:none;stroke-opacity:1"
     id="path4223" />
  <path
     d="M 1535.0526,727.27665 C 1535.3225,718.97159 1534.7213,653.33794 1535.0526,643.92598 C 1535.3835,634.52617 1540.7606,626.81115 1551.9289,626.45729 C 1563.0972,626.10342 1631.3767,626.25599 1640.5291,626.45729 C 1649.6816,626.65858 1657.668,631.53259 1657.9016,643.92598 C 1658.1354,656.56893 1657.5572,714.93861 1657.9016,727.27665 C 1658.2533,739.86868 1648.5226,744.81813 1640.5291,744.9949 C 1632.7837,745.17168 1561.6626,745.4777 1551.9289,744.9949 C 1542.1951,744.5121 1534.7827,735.58171 1535.0526,727.27665 z "
     style="fill:none;fill-rule:evenodd;stroke:#ff0000;stroke-width:4;stroke-linecap:butt;stroke-linejoin:miter;stroke-miterlimit:4;stroke-dasharray:none;stroke-opacity:1"
     id="path2161" />
  <path
     d="M 1331.6435,727.27665 C 1331.9134,718.97159 1331.3122,653.33794 1331.6435,643.92598 C 1331.9744,634.52617 1337.3515,626.81115 1348.5198,626.45729 C 1359.6881,626.10342 1427.9676,626.25599 1437.12,626.45729 C 1446.2725,626.65858 1454.2589,631.53259 1454.4925,643.92598 C 1454.7263,656.56893 1454.1481,714.93861 1454.4925,727.27665 C 1454.8442,739.86868 1445.1135,744.81813 1437.12,744.9949 C 1429.3746,745.17168 1358.2535,745.4777 1348.5198,744.9949 C 1338.786,744.5121 1331.3736,735.58171 1331.6435,727.27665 z "
     style="fill:none;fill-rule:evenodd;stroke:#ff0000;stroke-width:4;stroke-linecap:butt;stroke-linejoin:miter;stroke-miterlimit:4;stroke-dasharray:none;stroke-opacity:1"
     id="path3134" />
  <path
     d="M 1738.4617,727.27665 C 1738.7316,718.97159 1738.1304,653.33794 1738.4617,643.92598 C 1738.7926,634.52617 1744.1697,626.81115 1755.338,626.45729 C 1766.5063,626.10342 1834.7858,626.25599 1843.9382,626.45729 C 1853.0907,626.65858 1861.0771,631.53259 1861.3107,643.92598 C 1861.5445,656.56893 1860.9663,714.93861 1861.3107,727.27665 C 1861.6624,739.86868 1851.9317,744.81813 1843.9382,744.9949 C 1836.1928,745.17168 1765.0717,745.4777 1755.338,744.9949 C 1745.6042,744.5121 1738.1918,735.58171 1738.4617,727.27665 z "
     style="fill:none;fill-rule:evenodd;stroke:#ff0000;stroke-width:4;stroke-linecap:butt;stroke-linejoin:miter;stroke-miterlimit:4;stroke-dasharray:none;stroke-opacity:1"
     id="path3136" />
  <path
     d="M 1941.8708,727.27665 C 1942.1407,718.97159 1941.5395,653.33794 1941.8708,643.92598 C 1942.2017,634.52617 1947.5788,626.81115 1958.7471,626.45729 C 1969.9154,626.10342 2038.1949,626.25599 2047.3473,626.45729 C 2056.4998,626.65858 2064.4862,631.53259 2064.7198,643.92598 C 2064.9536,656.56893 2064.3754,714.93861 2064.7198,727.27665 C 2065.0715,739.86868 2055.3408,744.81813 2047.3473,744.9949 C 2039.6019,745.17168 1968.4808,745.4777 1958.7471,744.9949 C 1949.0133,744.5121 1941.6009,735.58171 1941.8708,727.27665 z "
     style="fill:none;fill-rule:evenodd;stroke:#ff0000;stroke-width:4;stroke-linecap:butt;stroke-linejoin:miter;stroke-miterlimit:4;stroke-dasharray:none;stroke-opacity:1"
     id="path3138" />
  <path
     d="M 2145.2799,727.27665 C 2145.5498,718.97159 2144.9486,653.33794 2145.2799,643.92598 C 2145.6108,634.52617 2150.9879,626.81115 2162.1562,626.45729 C 2173.3245,626.10342 2241.604,626.25599 2250.7564,626.45729 C 2259.9089,626.65858 2267.8953,631.53259 2268.1289,643.92598 C 2268.3627,656.56893 2267.7845,714.93861 2268.1289,727.27665 C 2268.4806,739.86868 2258.7499,744.81813 2250.7564,744.9949 C 2243.011,745.17168 2171.8899,745.4777 2162.1562,744.9949 C 2152.4224,744.5121 2145.01,735.58171 2145.2799,727.27665 z "
     style="fill:none;fill-rule:evenodd;stroke:#ff0000;stroke-width:4;stroke-linecap:butt;stroke-linejoin:miter;stroke-miterlimit:4;stroke-dasharray:none;stroke-opacity:1"
     id="path3140" />
  <path
     d="M 2348.689,727.27665 C 2348.9589,718.97159 2348.3577,653.33794 2348.689,643.92598 C 2349.0199,634.52617 2354.397,626.81115 2365.5653,626.45729 C 2376.7336,626.10342 2445.0131,626.25599 2454.1655,626.45729 C 2463.318,626.65858 2471.3044,631.53259 2471.538,643.92598 C 2471.7718,656.56893 2471.1936,714.93861 2471.538,727.27665 C 2471.8897,739.86868 2462.159,744.81813 2454.1655,744.9949 C 2446.4201,745.17168 2375.299,745.4777 2365.5653,744.9949 C 2355.8315,744.5121 2348.4191,735.58171 2348.689,727.27665 z "
     style="fill:none;fill-rule:evenodd;stroke:#ff0000;stroke-width:4;stroke-linecap:butt;stroke-linejoin:miter;stroke-miterlimit:4;stroke-dasharray:none;stroke-opacity:1"
     id="path3142" />
  <path
     d="M 2552.0981,727.27665 C 2552.368,718.97159 2551.7668,653.33794 2552.0981,643.92598 C 2552.429,634.52617 2557.8061,626.81115 2568.9744,626.45729 C 2580.1427,626.10342 2648.4222,626.25599 2657.5746,626.45729 C 2666.7271,626.65858 2674.7135,631.53259 2674.9471,643.92598 C 2675.1809,656.56893 2674.6027,714.93861 2674.9471,727.27665 C 2675.2988,739.86868 2665.5681,744.81813 2657.5746,744.9949 C 2649.8292,745.17168 2578.7081,745.4777 2568.9744,744.9949 C 2559.2406,744.5121 2551.8282,735.58171 2552.0981,727.27665 z "
     style="fill:none;fill-rule:evenodd;stroke:#ff0000;stroke-width:4;stroke-linecap:butt;stroke-linejoin:miter;stroke-miterlimit:4;stroke-dasharray:none;stroke-opacity:1"
     id="path3144" />
  <path
     d="M 1128.2344,727.27665 C 1128.5043,718.97159 1127.9031,653.33794 1128.2344,643.92598 C 1128.5653,634.52617 1133.9424,626.81115 1145.1107,626.45729 C 1156.279,626.10342 1224.5585,626.25599 1233.7109,626.45729 C 1242.8634,626.65858 1250.8498,631.53259 1251.0834,643.92598 C 1251.3172,656.56893 1250.739,714.93861 1251.0834,727.27665 C 1251.4351,739.86868 1241.7044,744.81813 1233.7109,744.9949 C 1225.9655,745.17168 1154.8444,745.4777 1145.1107,744.9949 C 1135.3769,744.5121 1127.9645,735.58171 1128.2344,727.27665 z "
     style="fill:none;fill-rule:evenodd;stroke:#ff0000;stroke-width:4;stroke-linecap:butt;stroke-linejoin:miter;stroke-miterlimit:4;stroke-dasharray:none;stroke-opacity:1"
     id="path3146" />
  <path
     d="M 924.8253,727.27665 C 925.0952,718.97159 924.494,653.33794 924.8253,643.92598 C 925.1562,634.52617 930.5333,626.81115 941.7016,626.45729 C 952.8699,626.10342 1021.1494,626.25599 1030.3018,626.45729 C 1039.4543,626.65858 1047.4407,631.53259 1047.6743,643.92598 C 1047.9081,656.56893 1047.3299,714.93861 1047.6743,727.27665 C 1048.026,739.86868 1038.2953,744.81813 1030.3018,744.9949 C 1022.5564,745.17168 951.4353,745.4777 941.7016,744.9949 C 931.9678,744.5121 924.5554,735.58171 924.8253,727.27665 z "
     style="fill:none;fill-rule:evenodd;stroke:#ff0000;stroke-width:4;stroke-linecap:butt;stroke-linejoin:miter;stroke-miterlimit:4;stroke-dasharray:none;stroke-opacity:1"
     id="path3148" />
  <path
     d="M 721.41625,727.27665 C 721.68615,718.97159 721.08495,653.33794 721.41625,643.92598 C 721.74715,634.52617 727.12425,626.81115 738.29255,626.45729 C 749.46085,626.10342 817.74035,626.25599 826.89275,626.45729 C 836.04525,626.65858 844.03165,631.53259 844.26525,643.92598 C 844.49905,656.56893 843.92085,714.93861 844.26525,727.27665 C 844.61695,739.86868 834.88625,744.81813 826.89275,744.9949 C 819.14735,745.17168 748.02625,745.4777 738.29255,744.9949 C 728.55875,744.5121 721.14635,735.58171 721.41625,727.27665 z "
     style="fill:none;fill-rule:evenodd;stroke:#ff0000;stroke-width:4;stroke-linecap:butt;stroke-linejoin:miter;stroke-miterlimit:4;stroke-dasharray:none;stroke-opacity:1"
     id="path3150" />
  <path
     d="M 518.00715,727.27665 C 518.27705,718.97159 517.67585,653.33794 518.00715,643.92598 C 518.33805,634.52617 523.71515,626.81115 534.88345,626.45729 C 546.05175,626.10342 614.33125,626.25599 623.48365,626.45729 C 632.63615,626.65858 640.62255,631.53259 640.85615,643.92598 C 641.08995,656.56893 640.51175,714.93861 640.85615,727.27665 C 641.20785,739.86868 631.47715,744.81813 623.48365,744.9949 C 615.73825,745.17168 544.61715,745.4777 534.88345,744.9949 C 525.14965,744.5121 517.73725,735.58171 518.00715,727.27665 z "
     style="fill:none;fill-rule:evenodd;stroke:#ff0000;stroke-width:4;stroke-linecap:butt;stroke-linejoin:miter;stroke-miterlimit:4;stroke-dasharray:none;stroke-opacity:1"
     id="path3152" />
  <path
     d="M 314.59806,727.27665 C 314.86796,718.97159 314.26676,653.33794 314.59806,643.92598 C 314.92896,634.52617 320.30606,626.81115 331.47436,626.45729 C 342.64266,626.10342 410.92216,626.25599 420.07456,626.45729 C 429.22706,626.65858 437.21346,631.53259 437.44706,643.92598 C 437.68086,656.56893 437.10266,714.93861 437.44706,727.27665 C 437.79876,739.86868 428.06806,744.81813 420.07456,744.9949 C 412.32916,745.17168 341.20806,745.4777 331.47436,744.9949 C 321.74056,744.5121 314.32816,735.58171 314.59806,727.27665 z "
     style="fill:none;fill-rule:evenodd;stroke:#ff0000;stroke-width:4;stroke-linecap:butt;stroke-linejoin:miter;stroke-miterlimit:4;stroke-dasharray:none;stroke-opacity:1"
     id="path3154" />
  <path
     d="M 78.09808,727.27664 C 78.36798,718.97154 77.76678,653.33794 78.09808,643.92594 C 78.42898,634.52614 83.80608,626.81114 94.97438,626.45724 C 106.14268,626.10344 208.42218,626.25594 217.57458,626.45724 C 226.72708,626.65854 234.71348,631.53254 234.94708,643.92594 C 235.18088,656.56894 234.60268,714.93864 234.94708,727.27664 C 235.29878,739.86864 225.56808,744.81814 217.57458,744.99494 C 209.82918,745.17164 104.70808,745.47774 94.97438,744.99494 C 85.240576,744.51214 77.82818,735.58174 78.09808,727.27664 z "
     style="fill:none;fill-rule:evenodd;stroke:#ff0000;stroke-width:4;stroke-linecap:butt;stroke-linejoin:miter;stroke-miterlimit:4;stroke-dasharray:none;stroke-opacity:1"
     id="path4225" />
  <path
     d="M 1633.3026,924.52681 C 1633.5725,916.22175 1632.9713,850.5881 1633.3026,841.17614 C 1633.6335,831.77633 1639.0106,824.06131 1650.1789,823.70745 C 1661.3472,823.35358 1729.6267,823.50615 1738.7791,823.70745 C 1747.9316,823.90874 1755.918,828.78275 1756.1516,841.17614 C 1756.3854,853.81909 1755.8072,912.18877 1756.1516,924.52681 C 1756.5033,937.11884 1746.7726,942.06829 1738.7791,942.24506 C 1731.0337,942.42184 1659.9126,942.72786 1650.1789,942.24506 C 1640.4451,941.76226 1633.0327,932.83187 1633.3026,924.52681 z "
     style="fill:none;fill-rule:evenodd;stroke:#ff0000;stroke-width:4;stroke-linecap:butt;stroke-linejoin:miter;stroke-miterlimit:4;stroke-dasharray:none;stroke-opacity:1"
     id="path4143" />
  <path
     d="M 1429.8935,924.52681 C 1430.1634,916.22175 1429.5622,850.5881 1429.8935,841.17614 C 1430.2244,831.77633 1435.6015,824.06131 1446.7698,823.70745 C 1457.9381,823.35358 1526.2176,823.50615 1535.37,823.70745 C 1544.5225,823.90874 1552.5089,828.78275 1552.7425,841.17614 C 1552.9763,853.81909 1552.3981,912.18877 1552.7425,924.52681 C 1553.0942,937.11884 1543.3635,942.06829 1535.37,942.24506 C 1527.6246,942.42184 1456.5035,942.72786 1446.7698,942.24506 C 1437.036,941.76226 1429.6236,932.83187 1429.8935,924.52681 z "
     style="fill:none;fill-rule:evenodd;stroke:#ff0000;stroke-width:4;stroke-linecap:butt;stroke-linejoin:miter;stroke-miterlimit:4;stroke-dasharray:none;stroke-opacity:1"
     id="path4145" />
  <path
     d="M 1836.7117,924.52681 C 1836.9816,916.22175 1836.3804,850.5881 1836.7117,841.17614 C 1837.0426,831.77633 1842.4197,824.06131 1853.588,823.70745 C 1864.7563,823.35358 1933.0358,823.50615 1942.1882,823.70745 C 1951.3407,823.90874 1959.3271,828.78275 1959.5607,841.17614 C 1959.7945,853.81909 1959.2163,912.18877 1959.5607,924.52681 C 1959.9124,937.11884 1950.1817,942.06829 1942.1882,942.24506 C 1934.4428,942.42184 1863.3217,942.72786 1853.588,942.24506 C 1843.8542,941.76226 1836.4418,932.83187 1836.7117,924.52681 z "
     style="fill:none;fill-rule:evenodd;stroke:#ff0000;stroke-width:4;stroke-linecap:butt;stroke-linejoin:miter;stroke-miterlimit:4;stroke-dasharray:none;stroke-opacity:1"
     id="path4147" />
  <path
     d="M 2040.1208,924.52681 C 2040.3907,916.22175 2039.7895,850.5881 2040.1208,841.17614 C 2040.4517,831.77633 2045.8288,824.06131 2056.9971,823.70745 C 2068.1654,823.35358 2136.4449,823.50615 2145.5973,823.70745 C 2154.7498,823.90874 2162.7362,828.78275 2162.9698,841.17614 C 2163.2036,853.81909 2162.6254,912.18877 2162.9698,924.52681 C 2163.3215,937.11884 2153.5908,942.06829 2145.5973,942.24506 C 2137.8519,942.42184 2066.7308,942.72786 2056.9971,942.24506 C 2047.2633,941.76226 2039.8509,932.83187 2040.1208,924.52681 z "
     style="fill:none;fill-rule:evenodd;stroke:#ff0000;stroke-width:4;stroke-linecap:butt;stroke-linejoin:miter;stroke-miterlimit:4;stroke-dasharray:none;stroke-opacity:1"
     id="path4149" />
  <path
     d="M 2243.5299,924.52681 C 2243.7998,916.22175 2243.1986,850.5881 2243.5299,841.17614 C 2243.8608,831.77633 2249.2379,824.06131 2260.4062,823.70745 C 2271.5745,823.35358 2339.854,823.50615 2349.0064,823.70745 C 2358.1589,823.90874 2366.1453,828.78275 2366.3789,841.17614 C 2366.6127,853.81909 2366.0345,912.18877 2366.3789,924.52681 C 2366.7306,937.11884 2356.9999,942.06829 2349.0064,942.24506 C 2341.261,942.42184 2270.1399,942.72786 2260.4062,942.24506 C 2250.6724,941.76226 2243.26,932.83187 2243.5299,924.52681 z "
     style="fill:none;fill-rule:evenodd;stroke:#ff0000;stroke-width:4;stroke-linecap:butt;stroke-linejoin:miter;stroke-miterlimit:4;stroke-dasharray:none;stroke-opacity:1"
     id="path4151" />
  <path
     d="M 2446.939,924.52681 C 2447.2089,916.22175 2446.6077,850.5881 2446.939,841.17614 C 2447.2699,831.77633 2452.647,824.06131 2463.8153,823.70745 C 2474.9836,823.35358 2649.2631,823.50615 2658.4155,823.70745 C 2667.568,823.90874 2675.5544,828.78275 2675.788,841.17614 C 2676.0218,853.81909 2675.4436,912.18877 2675.788,924.52681 C 2676.1397,937.11884 2666.409,942.06829 2658.4155,942.24506 C 2650.6701,942.42184 2473.549,942.72786 2463.8153,942.24506 C 2454.0815,941.76226 2446.6691,932.83187 2446.939,924.52681 z "
     style="fill:none;fill-rule:evenodd;stroke:#ff0000;stroke-width:4;stroke-linecap:butt;stroke-linejoin:miter;stroke-miterlimit:4;stroke-dasharray:none;stroke-opacity:1"
     id="path4153" />
  <path
     d="M 2954.3481,924.52681 C 2954.618,916.22175 2954.0168,850.5881 2954.3481,841.17614 C 2954.679,831.77633 2960.0561,824.06131 2971.2244,823.70745 C 2982.3927,823.35358 3040.6722,823.50615 3049.8246,823.70745 C 3058.9771,823.90874 3066.9635,828.78275 3067.1971,841.17614 C 3067.4309,853.81909 3066.8527,912.18877 3067.1971,924.52681 C 3067.5488,937.11884 3057.8181,942.06829 3049.8246,942.24506 C 3042.0792,942.42184 2980.9581,942.72786 2971.2244,942.24506 C 2961.4906,941.76226 2954.0782,932.83187 2954.3481,924.52681 z "
     style="fill:none;fill-rule:evenodd;stroke:#ff0000;stroke-width:4;stroke-linecap:butt;stroke-linejoin:miter;stroke-miterlimit:4;stroke-dasharray:none;stroke-opacity:1"
     id="path4155" />
  <path
     d="M 1226.4844,924.52681 C 1226.7543,916.22175 1226.1531,850.5881 1226.4844,841.17614 C 1226.8153,831.77633 1232.1924,824.06131 1243.3607,823.70745 C 1254.529,823.35358 1322.8085,823.50615 1331.9609,823.70745 C 1341.1134,823.90874 1349.0998,828.78275 1349.3334,841.17614 C 1349.5672,853.81909 1348.989,912.18877 1349.3334,924.52681 C 1349.6851,937.11884 1339.9544,942.06829 1331.9609,942.24506 C 1324.2155,942.42184 1253.0944,942.72786 1243.3607,942.24506 C 1233.6269,941.76226 1226.2145,932.83187 1226.4844,924.52681 z "
     style="fill:none;fill-rule:evenodd;stroke:#ff0000;stroke-width:4;stroke-linecap:butt;stroke-linejoin:miter;stroke-miterlimit:4;stroke-dasharray:none;stroke-opacity:1"
     id="path4157" />
  <path
     d="M 1023.0753,924.52681 C 1023.3452,916.22175 1022.744,850.5881 1023.0753,841.17614 C 1023.4062,831.77633 1028.7833,824.06131 1039.9516,823.70745 C 1051.1199,823.35358 1119.3994,823.50615 1128.5518,823.70745 C 1137.7043,823.90874 1145.6907,828.78275 1145.9243,841.17614 C 1146.1581,853.81909 1145.5799,912.18877 1145.9243,924.52681 C 1146.276,937.11884 1136.5453,942.06829 1128.5518,942.24506 C 1120.8064,942.42184 1049.6853,942.72786 1039.9516,942.24506 C 1030.2178,941.76226 1022.8054,932.83187 1023.0753,924.52681 z "
     style="fill:none;fill-rule:evenodd;stroke:#ff0000;stroke-width:4;stroke-linecap:butt;stroke-linejoin:miter;stroke-miterlimit:4;stroke-dasharray:none;stroke-opacity:1"
     id="path4159" />
  <path
     d="M 819.6662,924.52681 C 819.9361,916.22175 819.3349,850.5881 819.6662,841.17614 C 819.9971,831.77633 825.3742,824.06131 836.5425,823.70745 C 847.7108,823.35358 915.9903,823.50615 925.1427,823.70745 C 934.2952,823.90874 942.2816,828.78275 942.5152,841.17614 C 942.749,853.81909 942.1708,912.18877 942.5152,924.52681 C 942.8669,937.11884 933.1362,942.06829 925.1427,942.24506 C 917.3973,942.42184 846.2762,942.72786 836.5425,942.24506 C 826.8087,941.76226 819.3963,932.83187 819.6662,924.52681 z "
     style="fill:none;fill-rule:evenodd;stroke:#ff0000;stroke-width:4;stroke-linecap:butt;stroke-linejoin:miter;stroke-miterlimit:4;stroke-dasharray:none;stroke-opacity:1"
     id="path4161" />
  <path
     d="M 618.2571,924.52681 C 618.527,916.22175 617.9258,850.5881 618.2571,841.17614 C 618.588,831.77633 623.9651,824.06131 635.1334,823.70745 C 646.3017,823.35358 714.5812,823.50615 723.7336,823.70745 C 732.8861,823.90874 740.8725,828.78275 741.1061,841.17614 C 741.3399,853.81909 740.7617,912.18877 741.1061,924.52681 C 741.4578,937.11884 731.7271,942.06829 723.7336,942.24506 C 715.9882,942.42184 644.8671,942.72786 635.1334,942.24506 C 625.3996,941.76226 617.9872,932.83187 618.2571,924.52681 z "
     style="fill:none;fill-rule:evenodd;stroke:#ff0000;stroke-width:4;stroke-linecap:butt;stroke-linejoin:miter;stroke-miterlimit:4;stroke-dasharray:none;stroke-opacity:1"
     id="path4163" />
  <path
     d="M 412.848,924.52681 C 413.1179,916.22175 412.5167,850.5881 412.848,841.17614 C 413.1789,831.77633 418.556,824.06131 429.7243,823.70745 C 440.8926,823.35358 509.1721,823.50615 518.3245,823.70745 C 527.477,823.90874 535.4634,828.78275 535.697,841.17614 C 535.9308,853.81909 535.3526,912.18877 535.697,924.52681 C 536.0487,937.11884 526.318,942.06829 518.3245,942.24506 C 510.5791,942.42184 439.458,942.72786 429.7243,942.24506 C 419.9905,941.76226 412.5781,932.83187 412.848,924.52681 z "
     style="fill:none;fill-rule:evenodd;stroke:#ff0000;stroke-width:4;stroke-linecap:butt;stroke-linejoin:miter;stroke-miterlimit:4;stroke-dasharray:none;stroke-opacity:1"
     id="path4165" />
  <path
     d="M 78.09808,924.5268 C 78.36798,916.2217 77.76678,850.5881 78.09808,841.1761 C 78.42898,831.7763 83.80608,824.0613 94.97438,823.7074 C 106.14268,823.3536 304.42218,823.5061 313.57458,823.7074 C 322.72708,823.9087 330.71348,828.7827 330.94708,841.1761 C 331.18088,853.8191 330.60268,912.1888 330.94708,924.5268 C 331.29878,937.1188 321.56808,942.0683 313.57458,942.2451 C 305.82918,942.4218 104.70808,942.7279 94.97438,942.2451 C 85.24058,941.7623 77.82818,932.8319 78.09808,924.5268 z "
     style="fill:none;fill-rule:evenodd;stroke:#ff0000;stroke-width:4;stroke-linecap:butt;stroke-linejoin:miter;stroke-miterlimit:4;stroke-dasharray:none;stroke-opacity:1"
     id="path4227" />
  <path
     d="M 80.09808,1122.2768 C 80.36798,1113.9717 79.76678,1048.3381 80.09808,1038.9261 C 80.42898,1029.5263 85.80608,1021.8113 96.97438,1021.4574 C 108.14268,1021.1036 142.42218,1021.2561 151.57458,1021.4574 C 160.72708,1021.6587 168.71348,1026.5327 168.94708,1038.9261 C 169.18088,1051.5691 168.60268,1109.9388 168.94708,1122.2768 C 169.29878,1134.8688 159.56808,1139.8183 151.57458,1139.9951 C 143.82918,1140.1718 106.70808,1140.4779 96.97438,1139.9951 C 87.24058,1139.5123 79.82818,1130.5819 80.09808,1122.2768 z "
     style="fill:none;fill-rule:evenodd;stroke:#ff0000;stroke-width:4;stroke-linecap:butt;stroke-linejoin:miter;stroke-miterlimit:4;stroke-dasharray:none;stroke-opacity:1"
     id="path4229" />
  <path
     d="M 248.59806,1122.2768 C 248.86796,1113.9717 248.26676,1048.3381 248.59806,1038.9261 C 248.92896,1029.5263 254.30606,1021.8113 265.47436,1021.4574 C 276.64266,1021.1036 376.92216,1021.2561 386.07456,1021.4574 C 395.22706,1021.6587 403.21346,1026.5327 403.44706,1038.9261 C 403.68086,1051.5691 403.10266,1109.9388 403.44706,1122.2768 C 403.79876,1134.8688 394.06806,1139.8183 386.07456,1139.9951 C 378.32916,1140.1718 275.20806,1140.4779 265.47436,1139.9951 C 255.74056,1139.5123 248.32816,1130.5819 248.59806,1122.2768 z "
     style="fill:none;fill-rule:evenodd;stroke:#ff0000;stroke-width:4;stroke-linecap:butt;stroke-linejoin:miter;stroke-miterlimit:4;stroke-dasharray:none;stroke-opacity:1"
     id="path4231" />
  <path
     d="M 486.09806,1122.2768 C 486.36796,1113.9717 485.76676,1048.3381 486.09806,1038.9261 C 486.42896,1029.5263 491.80606,1021.8113 502.97436,1021.4574 C 514.14266,1021.1036 612.42216,1021.2561 621.57456,1021.4574 C 630.72706,1021.6587 638.71346,1026.5327 638.94706,1038.9261 C 639.18086,1051.5691 638.60266,1109.9388 638.94706,1122.2768 C 639.29876,1134.8688 629.56806,1139.8183 621.57456,1139.9951 C 613.82916,1140.1718 512.70806,1140.4779 502.97436,1139.9951 C 493.24056,1139.5123 485.82816,1130.5819 486.09806,1122.2768 z "
     style="fill:none;fill-rule:evenodd;stroke:#ff0000;stroke-width:4;stroke-linecap:butt;stroke-linejoin:miter;stroke-miterlimit:4;stroke-dasharray:none;stroke-opacity:1"
     id="path4233" />
  <path
     d="M 723.59806,1122.2768 C 723.86796,1113.9717 723.26676,1048.3381 723.59806,1038.9261 C 723.92896,1029.5263 729.30606,1021.8113 740.47436,1021.4574 C 751.64266,1021.1036 1985.9222,1021.2561 1995.0746,1021.4574 C 2004.2271,1021.6587 2012.2135,1026.5327 2012.4471,1038.9261 C 2012.6809,1051.5691 2012.1027,1109.9388 2012.4471,1122.2768 C 2012.7988,1134.8688 2003.0681,1139.8183 1995.0746,1139.9951 C 1987.3292,1140.1718 750.20806,1140.4779 740.47436,1139.9951 C 730.74056,1139.5123 723.32816,1130.5819 723.59806,1122.2768 z "
     style="fill:none;fill-rule:evenodd;stroke:#ff0000;stroke-width:4;stroke-linecap:butt;stroke-linejoin:miter;stroke-miterlimit:4;stroke-dasharray:none;stroke-opacity:1"
     id="path4235" />
  <path
     d="M 2098.5981,1122.2768 C 2098.868,1113.9717 2098.2668,1048.3381 2098.5981,1038.9261 C 2098.929,1029.5263 2104.3061,1021.8113 2115.4744,1021.4574 C 2126.6427,1021.1036 2224.9222,1021.2561 2234.0746,1021.4574 C 2243.2271,1021.6587 2251.2135,1026.5327 2251.4471,1038.9261 C 2251.6809,1051.5691 2251.1027,1109.9388 2251.4471,1122.2768 C 2251.7988,1134.8688 2242.0681,1139.8183 2234.0746,1139.9951 C 2226.3292,1140.1718 2125.2081,1140.4779 2115.4744,1139.9951 C 2105.7406,1139.5123 2098.3282,1130.5819 2098.5981,1122.2768 z "
     style="fill:none;fill-rule:evenodd;stroke:#ff0000;stroke-width:4;stroke-linecap:butt;stroke-linejoin:miter;stroke-miterlimit:4;stroke-dasharray:none;stroke-opacity:1"
     id="path4237" />
  <path
     d="M 2331.0981,1122.2768 C 2331.368,1113.9717 2330.7668,1048.3381 2331.0981,1038.9261 C 2331.429,1029.5263 2336.8061,1021.8113 2347.9744,1021.4574 C 2359.1427,1021.1036 2457.4222,1021.2561 2466.5746,1021.4574 C 2475.7271,1021.6587 2483.7135,1026.5327 2483.9471,1038.9261 C 2484.1809,1051.5691 2483.6027,1109.9388 2483.9471,1122.2768 C 2484.2988,1134.8688 2474.5681,1139.8183 2466.5746,1139.9951 C 2458.8292,1140.1718 2357.7081,1140.4779 2347.9744,1139.9951 C 2338.2406,1139.5123 2330.8282,1130.5819 2331.0981,1122.2768 z "
     style="fill:none;fill-rule:evenodd;stroke:#ff0000;stroke-width:4;stroke-linecap:butt;stroke-linejoin:miter;stroke-miterlimit:4;stroke-dasharray:none;stroke-opacity:1"
     id="path4239" />
  <path
     d="M 2757.5981,1122.2768 C 2757.868,1113.9717 2757.2668,1048.3381 2757.5981,1038.9261 C 2757.929,1029.5263 2763.3061,1021.8113 2774.4744,1021.4574 C 2785.6427,1021.1036 2847.9222,1021.2561 2857.0746,1021.4574 C 2866.2271,1021.6587 2874.2135,1026.5327 2874.4471,1038.9261 C 2874.6809,1051.5691 2874.1027,1109.9388 2874.4471,1122.2768 C 2874.7988,1134.8688 2865.0681,1139.8183 2857.0746,1139.9951 C 2849.3292,1140.1718 2784.2081,1140.4779 2774.4744,1139.9951 C 2764.7406,1139.5123 2757.3282,1130.5819 2757.5981,1122.2768 z "
     style="fill:none;fill-rule:evenodd;stroke:#ff0000;stroke-width:4;stroke-linecap:butt;stroke-linejoin:miter;stroke-miterlimit:4;stroke-dasharray:none;stroke-opacity:1"
     id="path4241" />
  <g
     id="g4296">
    <path
       d="M 80.09808,137.2768 C 80.36798,128.97174 79.76678,105.33809 80.09808,95.926132 C 80.42898,86.526322 85.80608,78.811302 96.97438,78.457442 C 108.14264,78.103572 168.42214,78.256142 177.57454,78.457442 C 186.72704,78.658732 194.71344,83.532742 194.94704,95.926132 C 195.18084,108.56908 194.60264,124.93876 194.94704,137.2768 C 195.29874,149.86883 185.56804,154.81828 177.57454,154.99505 C 169.82914,155.17183 106.70804,155.47785 96.97438,154.99505 C 87.24058,154.51225 79.82818,145.58186 80.09808,137.2768 z "
       style="fill:none;fill-rule:evenodd;stroke:#ff0000;stroke-width:4;stroke-linecap:butt;stroke-linejoin:miter;stroke-miterlimit:4;stroke-dasharray:none;stroke-opacity:1"
       id="path4247" />
    <path
       d="M 275.09808,137.2768 C 275.36798,128.97174 274.76678,105.33809 275.09808,95.926133 C 275.42898,86.526323 280.80608,78.811303 291.97438,78.457443 C 303.14264,78.103573 363.42214,78.256143 372.57454,78.457443 C 381.72704,78.658733 389.71344,83.532743 389.94704,95.926133 C 390.18084,108.56908 389.60264,124.93876 389.94704,137.2768 C 390.29874,149.86883 380.56804,154.81828 372.57454,154.99505 C 364.82914,155.17183 301.70804,155.47785 291.97438,154.99505 C 282.24058,154.51225 274.82818,145.58186 275.09808,137.2768 z "
       style="fill:none;fill-rule:evenodd;stroke:#ff0000;stroke-width:4;stroke-linecap:butt;stroke-linejoin:miter;stroke-miterlimit:4;stroke-dasharray:none;stroke-opacity:1"
       id="path4284" />
    <path
       d="M 470.59808,137.2768 C 470.86798,128.97174 470.26678,105.33809 470.59808,95.926133 C 470.92898,86.526323 476.30608,78.811303 487.47438,78.457443 C 498.64264,78.103573 1124.9221,78.256143 1134.0745,78.457443 C 1143.227,78.658733 1151.2134,83.532743 1151.447,95.926133 C 1151.6808,108.56908 1151.1026,124.93876 1151.447,137.2768 C 1151.7987,149.86883 1142.068,154.81828 1134.0745,154.99505 C 1126.3291,155.17183 497.20804,155.47785 487.47438,154.99505 C 477.74058,154.51225 470.32818,145.58186 470.59808,137.2768 z "
       style="fill:none;fill-rule:evenodd;stroke:#ff0000;stroke-width:4;stroke-linecap:butt;stroke-linejoin:miter;stroke-miterlimit:4;stroke-dasharray:none;stroke-opacity:1"
       id="path4286" />
    <path
       d="M 2757.6702,137.2768 C 2757.9401,128.97174 2757.3389,105.33809 2757.6702,95.926134 C 2758.0011,86.526324 2763.3782,78.811299 2774.5465,78.457439 C 2785.7148,78.103569 2845.9943,78.256139 2855.1467,78.457439 C 2864.2992,78.658729 2872.2856,83.532744 2872.5192,95.926134 C 2872.753,108.56908 2872.1748,124.93876 2872.5192,137.2768 C 2872.8709,149.86883 2863.1402,154.81828 2855.1467,154.99505 C 2847.4013,155.17183 2784.2802,155.47785 2774.5465,154.99505 C 2764.8127,154.51225 2757.4003,145.58186 2757.6702,137.2768 z "
       style="fill:none;fill-rule:evenodd;stroke:#ff0000;stroke-width:4;stroke-linecap:butt;stroke-linejoin:miter;stroke-miterlimit:4;stroke-dasharray:none;stroke-opacity:1"
       id="path4288" />
    <path
       d="M 2953.0981,137.2768 C 2953.368,128.97174 2952.7668,105.33809 2953.0981,95.926133 C 2953.429,86.526323 2958.8061,78.811303 2969.9744,78.457443 C 2981.1426,78.103573 3041.4221,78.256143 3050.5745,78.457443 C 3059.727,78.658733 3067.7134,83.532743 3067.947,95.926133 C 3068.1808,108.56908 3067.6026,124.93876 3067.947,137.2768 C 3068.2987,149.86883 3058.568,154.81828 3050.5745,154.99505 C 3042.8291,155.17183 2979.708,155.47785 2969.9744,154.99505 C 2960.2406,154.51225 2952.8282,145.58186 2953.0981,137.2768 z "
       style="fill:none;fill-rule:evenodd;stroke:#ff0000;stroke-width:4;stroke-linecap:butt;stroke-linejoin:miter;stroke-miterlimit:4;stroke-dasharray:none;stroke-opacity:1"
       id="path4290" />
    <path
       d="M 1234.0981,137.2768 C 1234.368,128.97174 1233.7668,105.33809 1234.0981,95.926132 C 1234.429,86.526322 1239.8061,78.811302 1250.9744,78.457442 C 1262.1427,78.103572 1888.4221,78.256142 1897.5745,78.457442 C 1906.727,78.658732 1914.7134,83.532742 1914.947,95.926132 C 1915.1808,108.56908 1914.6026,124.93876 1914.947,137.2768 C 1915.2987,149.86883 1905.568,154.81828 1897.5745,154.99505 C 1889.8291,155.17183 1260.7081,155.47785 1250.9744,154.99505 C 1241.2406,154.51225 1233.8282,145.58186 1234.0981,137.2768 z "
       style="fill:none;fill-rule:evenodd;stroke:#ff0000;stroke-width:4;stroke-linecap:butt;stroke-linejoin:miter;stroke-miterlimit:4;stroke-dasharray:none;stroke-opacity:1"
       id="path4292" />
    <path
       d="M 1995.3637,137.2768 C 1995.6336,128.97174 1995.0324,105.33809 1995.3637,95.926138 C 1995.6946,86.526328 2001.0717,78.811305 2012.24,78.457445 C 2023.4082,78.103575 2649.6877,78.256145 2658.8401,78.457445 C 2667.9926,78.658735 2675.979,83.532748 2676.2126,95.926138 C 2676.4464,108.56908 2675.8682,124.93876 2676.2126,137.2768 C 2676.5643,149.86883 2666.8336,154.81828 2658.8401,154.99505 C 2651.0947,155.17183 2021.9736,155.47785 2012.24,154.99505 C 2002.5062,154.51225 1995.0938,145.58186 1995.3637,137.2768 z "
       style="fill:none;fill-rule:evenodd;stroke:#ff0000;stroke-width:4;stroke-linecap:butt;stroke-linejoin:miter;stroke-miterlimit:4;stroke-dasharray:none;stroke-opacity:1"
       id="path4294" />
  </g>
  <path
     d="M 2562.8481,1080.8513 C 2562.618,1050.2962 2598.0561,1022.0613 2609.2244,1021.7074 C 2620.3927,1021.3536 2650.6722,1021.5061 2659.8246,1021.7074 C 2668.9771,1021.9087 2676.9635,1026.5327 2677.1971,1038.9261 C 2677.4309,1051.5691 2676.8527,1109.9388 2677.1971,1122.2768 C 2677.5488,1134.8688 2667.8181,1139.8183 2659.8246,1139.9951 C 2652.0792,1140.1718 2618.9581,1140.4779 2609.2244,1139.9951 C 2599.4906,1139.5123 2563.0782,1111.1564 2562.8481,1080.8513 z "
     style="fill:none;fill-rule:evenodd;stroke:#ff0000;stroke-width:4;stroke-linecap:butt;stroke-linejoin:miter;stroke-miterlimit:4;stroke-dasharray:none;stroke-opacity:1"
     id="path4441" />
  <path
     d="M 3069.4526,1080.8513 C 3069.6827,1050.2962 3034.2446,1022.0613 3023.0763,1021.7074 C 3011.908,1021.3536 2981.6285,1021.5061 2972.4761,1021.7074 C 2963.3236,1021.9087 2955.3372,1026.5327 2955.1036,1038.9261 C 2954.8698,1051.5691 2955.448,1109.9388 2955.1036,1122.2768 C 2954.7519,1134.8688 2964.4826,1139.8183 2972.4761,1139.9951 C 2980.2215,1140.1718 3013.3426,1140.4779 3023.0763,1139.9951 C 3032.8101,1139.5123 3069.2225,1111.1564 3069.4526,1080.8513 z "
     style="fill:none;fill-rule:evenodd;stroke:#ff0000;stroke-width:4;stroke-linecap:butt;stroke-linejoin:miter;stroke-miterlimit:4;stroke-dasharray:none;stroke-opacity:1"
     id="path4443" />
  <path
     d="M 2816.0237,824.0981 C 2846.5788,823.868 2874.8137,859.3061 2875.1676,870.4744 C 2875.5214,881.6427 2875.3689,915.9222 2875.1676,925.0746 C 2874.9663,934.2271 2870.3423,942.2135 2857.9489,942.4471 C 2845.3059,942.6809 2786.9362,942.1027 2774.5982,942.4471 C 2762.0062,942.7988 2757.0567,933.0681 2756.8799,925.0746 C 2756.7032,917.3292 2756.3971,880.2081 2756.8799,870.4744 C 2757.3627,860.7406 2785.7186,824.3282 2816.0237,824.0981 z "
     style="fill:none;fill-rule:evenodd;stroke:#ff0000;stroke-width:4;stroke-linecap:butt;stroke-linejoin:miter;stroke-miterlimit:4;stroke-dasharray:none;stroke-opacity:1"
     id="path4445" />
</svg>
